<svg xmlns="http://www.w3.org/2000/svg" xmlns:xlink="http://www.w3.org/1999/xlink" width="500" zoomAndPan="magnify" viewBox="0 0 375 374.999991" height="500" preserveAspectRatio="xMidYMid meet" version="1.0"><defs><g/><clipPath id="c8afad458b"><path d="M 243.050781 178.789062 L 253.1875 178.789062 L 253.1875 226.378906 L 243.050781 226.378906 Z M 243.050781 178.789062 " clip-rule="nonzero"/></clipPath><clipPath id="d7549e191f"><path d="M 248.121094 178.789062 C 249.464844 178.789062 250.753906 179.324219 251.703125 180.273438 C 252.652344 181.222656 253.1875 182.511719 253.1875 183.855469 L 253.1875 221.292969 C 253.1875 222.636719 252.652344 223.925781 251.703125 224.878906 C 250.753906 225.828125 249.464844 226.363281 248.121094 226.363281 C 246.777344 226.363281 245.488281 225.828125 244.535156 224.878906 C 243.585938 223.925781 243.050781 222.636719 243.050781 221.292969 L 243.050781 183.855469 C 243.050781 182.511719 243.585938 181.222656 244.535156 180.273438 C 245.488281 179.324219 246.777344 178.789062 248.121094 178.789062 Z M 248.121094 178.789062 " clip-rule="nonzero"/></clipPath><clipPath id="861569d824"><path d="M 245.75 217.34375 L 260.847656 217.34375 L 260.847656 226.351562 L 245.75 226.351562 Z M 245.75 217.34375 " clip-rule="nonzero"/></clipPath><clipPath id="6614d28b92"><path d="M 245.75 221.847656 C 245.75 220.652344 246.222656 219.507812 247.070312 218.664062 C 247.914062 217.816406 249.058594 217.34375 250.253906 217.34375 L 256.320312 217.34375 C 257.515625 217.34375 258.660156 217.816406 259.507812 218.664062 C 260.351562 219.507812 260.824219 220.652344 260.824219 221.847656 C 260.824219 223.042969 260.351562 224.1875 259.507812 225.03125 C 258.660156 225.878906 257.515625 226.351562 256.320312 226.351562 L 250.253906 226.351562 C 249.058594 226.351562 247.914062 225.878906 247.070312 225.03125 C 246.222656 224.1875 245.75 223.042969 245.75 221.847656 Z M 245.75 221.847656 " clip-rule="nonzero"/></clipPath><clipPath id="ac4398e059"><path d="M 248.9375 204.824219 L 275.535156 204.824219 L 275.535156 210.117188 L 248.9375 210.117188 Z M 248.9375 204.824219 " clip-rule="nonzero"/></clipPath><clipPath id="922fd550a8"><path d="M 248.9375 207.472656 C 248.9375 206.011719 250.121094 204.824219 251.582031 204.824219 L 272.875 204.824219 C 274.335938 204.824219 275.519531 206.011719 275.519531 207.472656 C 275.519531 208.933594 274.335938 210.117188 272.875 210.117188 L 251.582031 210.117188 C 250.121094 210.117188 248.9375 208.933594 248.9375 207.472656 Z M 248.9375 207.472656 " clip-rule="nonzero"/></clipPath><clipPath id="da46fecda0"><path d="M 250 195 L 276 195 L 276 210 L 250 210 Z M 250 195 " clip-rule="nonzero"/></clipPath><clipPath id="61f2e05212"><path d="M 250.148438 198.738281 L 252.25 194.308594 L 276.28125 205.691406 L 274.183594 210.125 Z M 250.148438 198.738281 " clip-rule="nonzero"/></clipPath><clipPath id="ae1e5a9d35"><path d="M 251.199219 196.523438 C 251.476562 195.9375 251.976562 195.484375 252.589844 195.265625 C 253.203125 195.046875 253.878906 195.078125 254.464844 195.355469 L 274.054688 204.636719 C 274.644531 204.914062 275.097656 205.414062 275.316406 206.027344 C 275.535156 206.640625 275.5 207.3125 275.222656 207.902344 C 274.941406 208.488281 274.441406 208.941406 273.828125 209.160156 C 273.21875 209.378906 272.542969 209.347656 271.957031 209.066406 L 252.367188 199.789062 C 251.777344 199.511719 251.324219 199.011719 251.105469 198.398438 C 250.886719 197.785156 250.921875 197.113281 251.199219 196.523438 Z M 251.199219 196.523438 " clip-rule="nonzero"/></clipPath><clipPath id="d120c0365c"><path d="M 251 197 L 265 197 L 265 209 L 251 209 Z M 251 197 " clip-rule="nonzero"/></clipPath><clipPath id="3b21b3069b"><path d="M 250.148438 203.53125 L 253.796875 196.3125 L 265.441406 202.203125 L 261.789062 209.417969 Z M 250.148438 203.53125 " clip-rule="nonzero"/></clipPath><clipPath id="7c0f95b478"><path d="M 251.972656 199.921875 C 252.457031 198.964844 253.300781 198.238281 254.320312 197.90625 C 255.339844 197.570312 256.449219 197.65625 257.40625 198.140625 L 261.820312 200.371094 C 262.773438 200.855469 263.5 201.699219 263.835938 202.71875 C 264.167969 203.738281 264.085938 204.847656 263.601562 205.804688 C 263.117188 206.761719 262.273438 207.488281 261.253906 207.820312 C 260.234375 208.15625 259.125 208.070312 258.167969 207.585938 L 253.753906 205.355469 C 252.796875 204.871094 252.074219 204.027344 251.738281 203.007812 C 251.40625 201.988281 251.488281 200.878906 251.972656 199.921875 Z M 251.972656 199.921875 " clip-rule="nonzero"/></clipPath></defs><rect x="-37.5" width="450" fill="#ffffff" y="-37.499999" height="449.999989" fill-opacity="1"/><rect x="-37.5" width="450" fill="#ffffff" y="-37.499999" height="449.999989" fill-opacity="1"/><g clip-path="url(#c8afad458b)"><g clip-path="url(#d7549e191f)"><path fill="#ff6f31" d="M 243.050781 178.789062 L 253.1875 178.789062 L 253.1875 226.378906 L 243.050781 226.378906 Z M 243.050781 178.789062 " fill-opacity="1" fill-rule="nonzero"/></g></g><g clip-path="url(#861569d824)"><g clip-path="url(#6614d28b92)"><path fill="#ff6f31" d="M 245.75 226.351562 L 245.75 217.34375 L 260.8125 217.34375 L 260.8125 226.351562 Z M 245.75 226.351562 " fill-opacity="1" fill-rule="nonzero"/></g></g><g clip-path="url(#ac4398e059)"><g clip-path="url(#922fd550a8)"><path fill="#ff6f31" d="M 248.9375 210.117188 L 248.9375 204.824219 L 275.511719 204.824219 L 275.511719 210.117188 Z M 248.9375 210.117188 " fill-opacity="1" fill-rule="nonzero"/></g></g><g clip-path="url(#da46fecda0)"><g clip-path="url(#61f2e05212)"><g clip-path="url(#ae1e5a9d35)"><path fill="#ff6f31" d="M 250.148438 198.738281 L 252.25 194.308594 L 276.265625 205.683594 L 274.167969 210.117188 Z M 250.148438 198.738281 " fill-opacity="1" fill-rule="nonzero"/></g></g></g><g clip-path="url(#d120c0365c)"><g clip-path="url(#3b21b3069b)"><g clip-path="url(#7c0f95b478)"><path fill="#ff6f31" d="M 250.148438 203.53125 L 253.796875 196.3125 L 265.441406 202.203125 L 261.789062 209.417969 Z M 250.148438 203.53125 " fill-opacity="1" fill-rule="nonzero"/></g></g></g><g fill="#001969" fill-opacity="1"><g transform="translate(86.130349, 181.732011)"><g><path d="M 29.6875 11.328125 C 28.59375 11.328125 27.722656 10.96875 27.078125 10.25 C 26.441406 9.53125 26.125 8.625 26.125 7.53125 L 26.125 -2.21875 C 23.539062 -0.5 20.632812 0.359375 17.40625 0.359375 C 15.25 0.359375 13.203125 -0.046875 11.265625 -0.859375 C 9.335938 -1.679688 7.632812 -2.835938 6.15625 -4.328125 C 4.664062 -5.785156 3.503906 -7.484375 2.671875 -9.421875 C 1.847656 -11.367188 1.4375 -13.421875 1.4375 -15.578125 C 1.4375 -17.734375 1.847656 -19.785156 2.671875 -21.734375 C 3.503906 -23.691406 4.664062 -25.414062 6.15625 -26.90625 C 7.632812 -28.382812 9.335938 -29.53125 11.265625 -30.34375 C 13.203125 -31.164062 15.25 -31.578125 17.40625 -31.578125 C 19.570312 -31.578125 21.613281 -31.171875 23.53125 -30.359375 C 25.445312 -29.554688 27.148438 -28.425781 28.640625 -26.96875 C 30.097656 -25.507812 31.238281 -23.816406 32.0625 -21.890625 C 32.894531 -19.972656 33.335938 -17.9375 33.390625 -15.78125 L 33.390625 7.53125 C 33.390625 8.050781 33.289062 8.546875 33.09375 9.015625 C 32.894531 9.484375 32.628906 9.882812 32.296875 10.21875 C 31.554688 10.957031 30.6875 11.328125 29.6875 11.328125 Z M 17.40625 -6.90625 C 18.613281 -6.90625 19.742188 -7.128906 20.796875 -7.578125 C 21.859375 -8.023438 22.789062 -8.648438 23.59375 -9.453125 C 24.40625 -10.265625 25.03125 -11.191406 25.46875 -12.234375 C 25.90625 -13.285156 26.125 -14.398438 26.125 -15.578125 C 26.125 -16.753906 25.898438 -17.863281 25.453125 -18.90625 C 25.003906 -19.957031 24.375 -20.890625 23.5625 -21.703125 C 22.78125 -22.484375 21.851562 -23.097656 20.78125 -23.546875 C 19.71875 -23.992188 18.59375 -24.21875 17.40625 -24.21875 C 16.25 -24.21875 15.132812 -23.992188 14.0625 -23.546875 C 13 -23.097656 12.078125 -22.484375 11.296875 -21.703125 C 10.484375 -20.890625 9.851562 -19.957031 9.40625 -18.90625 C 8.957031 -17.863281 8.734375 -16.753906 8.734375 -15.578125 C 8.734375 -14.398438 8.957031 -13.285156 9.40625 -12.234375 C 9.851562 -11.191406 10.484375 -10.265625 11.296875 -9.453125 C 12.097656 -8.648438 13.019531 -8.023438 14.0625 -7.578125 C 15.113281 -7.128906 16.226562 -6.90625 17.40625 -6.90625 Z M 17.40625 -6.90625 "/></g></g></g><g fill="#001969" fill-opacity="1"><g transform="translate(112.70756, 181.732011)"><g/></g></g><g fill="#001969" fill-opacity="1"><g transform="translate(118.076207, 181.732011)"><g><path d="M 18.296875 0.359375 C 16.203125 0.359375 14.21875 -0.0351562 12.34375 -0.828125 C 10.46875 -1.628906 8.816406 -2.75 7.390625 -4.1875 C 5.972656 -5.625 4.867188 -7.273438 4.078125 -9.140625 C 3.296875 -11.015625 2.90625 -13 2.90625 -15.09375 L 2.90625 -27.890625 C 2.90625 -28.890625 3.253906 -29.738281 3.953125 -30.4375 C 4.648438 -31.132812 5.503906 -31.484375 6.515625 -31.484375 C 7.535156 -31.484375 8.394531 -31.132812 9.09375 -30.4375 C 9.8125 -29.71875 10.171875 -28.867188 10.171875 -27.890625 L 10.171875 -15.015625 C 10.171875 -13.890625 10.378906 -12.832031 10.796875 -11.84375 C 11.210938 -10.863281 11.789062 -10.003906 12.53125 -9.265625 C 13.28125 -8.523438 14.144531 -7.945312 15.125 -7.53125 C 16.101562 -7.113281 17.160156 -6.90625 18.296875 -6.90625 C 20.523438 -6.90625 22.335938 -7.703125 23.734375 -9.296875 C 25.085938 -10.773438 25.765625 -12.707031 25.765625 -15.09375 L 25.765625 -27.890625 C 25.765625 -28.890625 26.132812 -29.738281 26.875 -30.4375 C 27.632812 -31.15625 28.492188 -31.515625 29.453125 -31.515625 C 30.441406 -31.515625 31.296875 -31.15625 32.015625 -30.4375 C 32.691406 -29.71875 33.03125 -28.867188 33.03125 -27.890625 L 33.03125 -15.09375 C 33.03125 -12.96875 32.660156 -10.976562 31.921875 -9.125 C 31.191406 -7.269531 30.160156 -5.625 28.828125 -4.1875 C 27.503906 -2.75 25.9375 -1.628906 24.125 -0.828125 C 22.3125 -0.0351562 20.367188 0.359375 18.296875 0.359375 Z M 18.296875 0.359375 "/></g></g></g><g fill="#001969" fill-opacity="1"><g transform="translate(144.293395, 181.732011)"><g/></g></g><g fill="#001969" fill-opacity="1"><g transform="translate(149.662046, 181.732011)"><g><path d="M 7.03125 -34.828125 C 5.945312 -34.828125 5.007812 -35.21875 4.21875 -36 C 3.4375 -36.789062 3.046875 -37.726562 3.046875 -38.8125 C 3.046875 -39.90625 3.4375 -40.84375 4.21875 -41.625 C 4.988281 -42.394531 5.925781 -42.78125 7.03125 -42.78125 C 8.144531 -42.78125 9.085938 -42.394531 9.859375 -41.625 C 10.640625 -40.84375 11.03125 -39.90625 11.03125 -38.8125 C 11.03125 -37.726562 10.640625 -36.789062 9.859375 -36 C 9.066406 -35.21875 8.125 -34.828125 7.03125 -34.828125 Z M 7.03125 0.296875 C 6.007812 0.296875 5.148438 -0.0507812 4.453125 -0.75 C 3.710938 -1.425781 3.34375 -2.28125 3.34375 -3.3125 L 3.34375 -27.953125 C 3.34375 -28.953125 3.710938 -29.800781 4.453125 -30.5 C 4.773438 -30.832031 5.164062 -31.09375 5.625 -31.28125 C 6.082031 -31.476562 6.5625 -31.578125 7.0625 -31.578125 C 8.050781 -31.578125 8.90625 -31.21875 9.625 -30.5 C 10.300781 -29.78125 10.640625 -28.929688 10.640625 -27.953125 L 10.640625 -3.3125 C 10.640625 -2.300781 10.289062 -1.445312 9.59375 -0.75 C 8.894531 -0.0507812 8.039062 0.296875 7.03125 0.296875 Z M 7.03125 0.296875 "/></g></g></g><g fill="#001969" fill-opacity="1"><g transform="translate(153.983359, 181.732011)"><g/></g></g><g fill="#001969" fill-opacity="1"><g transform="translate(159.35201, 181.732011)"><g><path d="M 17.671875 0.359375 C 15.472656 0.359375 13.382812 -0.0351562 11.40625 -0.828125 C 9.425781 -1.628906 7.695312 -2.757812 6.21875 -4.21875 C 4.707031 -5.6875 3.53125 -7.378906 2.6875 -9.296875 C 1.851562 -11.210938 1.4375 -13.265625 1.4375 -15.453125 C 1.4375 -17.648438 1.847656 -19.734375 2.671875 -21.703125 C 3.503906 -23.679688 4.675781 -25.414062 6.1875 -26.90625 C 7.6875 -28.382812 9.414062 -29.53125 11.375 -30.34375 C 13.34375 -31.164062 15.441406 -31.578125 17.671875 -31.578125 C 19.785156 -31.578125 21.789062 -31.207031 23.6875 -30.46875 C 25.59375 -29.726562 27.234375 -28.671875 28.609375 -27.296875 C 29.484375 -26.421875 29.921875 -25.414062 29.921875 -24.28125 C 29.921875 -23.238281 29.484375 -22.359375 28.609375 -21.640625 C 28.234375 -21.328125 27.832031 -21.085938 27.40625 -20.921875 C 26.976562 -20.765625 26.59375 -20.6875 26.25 -20.6875 C 25.570312 -20.6875 24.882812 -20.90625 24.1875 -21.34375 C 23.882812 -21.539062 23.304688 -21.953125 22.453125 -22.578125 C 21.578125 -23.191406 20.710938 -23.613281 19.859375 -23.84375 C 19.015625 -24.070312 18.054688 -24.1875 16.984375 -24.1875 C 15.847656 -24.144531 14.789062 -23.878906 13.8125 -23.390625 C 12.832031 -22.898438 11.96875 -22.25 11.21875 -21.4375 C 10.5 -20.632812 9.929688 -19.722656 9.515625 -18.703125 C 9.109375 -17.691406 8.90625 -16.660156 8.90625 -15.609375 C 8.90625 -14.546875 9.109375 -13.492188 9.515625 -12.453125 C 9.929688 -11.421875 10.515625 -10.5 11.265625 -9.6875 C 12.023438 -8.851562 12.921875 -8.195312 13.953125 -7.71875 C 14.992188 -7.238281 16.09375 -7 17.25 -7 C 18.226562 -7 19.125 -7.113281 19.9375 -7.34375 C 20.757812 -7.570312 21.597656 -7.992188 22.453125 -8.609375 C 22.628906 -8.734375 22.960938 -8.976562 23.453125 -9.34375 C 23.941406 -9.707031 24.414062 -10 24.875 -10.21875 C 25.332031 -10.40625 25.800781 -10.5 26.28125 -10.5 C 26.65625 -10.5 27.054688 -10.410156 27.484375 -10.234375 C 27.921875 -10.066406 28.316406 -9.832031 28.671875 -9.53125 C 29.503906 -8.800781 29.921875 -7.9375 29.921875 -6.9375 C 29.921875 -6.414062 29.8125 -5.890625 29.59375 -5.359375 C 29.375 -4.835938 29.046875 -4.359375 28.609375 -3.921875 C 27.234375 -2.546875 25.59375 -1.488281 23.6875 -0.75 C 21.789062 -0.0078125 19.785156 0.359375 17.671875 0.359375 Z M 17.671875 0.359375 "/></g></g></g><g fill="#001969" fill-opacity="1"><g transform="translate(181.019831, 181.732011)"><g/></g></g><g fill="#001969" fill-opacity="1"><g transform="translate(186.388482, 181.732011)"><g><path d="M 6.375 0 C 5.351562 0 4.492188 -0.347656 3.796875 -1.046875 C 3.078125 -1.742188 2.71875 -2.582031 2.71875 -3.5625 L 2.71875 -39.34375 C 2.71875 -40.363281 3.085938 -41.210938 3.828125 -41.890625 C 4.523438 -42.566406 5.375 -42.90625 6.375 -42.90625 C 7.382812 -42.90625 8.238281 -42.566406 8.9375 -41.890625 C 9.632812 -41.191406 9.984375 -40.34375 9.984375 -39.34375 L 9.953125 -20.484375 L 20.421875 -30.140625 C 21.097656 -30.773438 21.882812 -31.09375 22.78125 -31.09375 C 23.238281 -31.09375 23.703125 -30.992188 24.171875 -30.796875 C 24.640625 -30.597656 25.050781 -30.335938 25.40625 -30.015625 C 25.75 -29.679688 26.023438 -29.285156 26.234375 -28.828125 C 26.441406 -28.367188 26.546875 -27.910156 26.546875 -27.453125 C 26.546875 -26.429688 26.164062 -25.570312 25.40625 -24.875 L 16.203125 -16.390625 L 27.234375 -6.15625 C 27.890625 -5.539062 28.21875 -4.765625 28.21875 -3.828125 C 28.21875 -2.847656 27.859375 -1.976562 27.140625 -1.21875 C 26.410156 -0.445312 25.578125 -0.0625 24.640625 -0.0625 C 23.578125 -0.101562 22.6875 -0.472656 21.96875 -1.171875 L 9.953125 -12.34375 L 9.953125 -3.5625 C 9.953125 -2.539062 9.601562 -1.703125 8.90625 -1.046875 C 8.207031 -0.347656 7.363281 0 6.375 0 Z M 6.375 0 "/></g></g></g><g fill="#001969" fill-opacity="1"><g transform="translate(206.486506, 181.732011)"><g/></g></g><g fill="#001969" fill-opacity="1"><g transform="translate(211.855154, 181.732011)"><g/></g></g><g fill="#001969" fill-opacity="1"><g transform="translate(217.223802, 181.732011)"><g/></g></g><g fill="#001969" fill-opacity="1"><g transform="translate(153.714442, 225.549636)"><g><path d="M 7.421875 0.28125 C 6.484375 0.28125 5.6875 -0.046875 5.03125 -0.703125 C 4.34375 -1.359375 4 -2.148438 4 -3.078125 L 4 -37.359375 C 4 -38.285156 4.34375 -39.085938 5.03125 -39.765625 C 5.6875 -40.398438 6.484375 -40.71875 7.421875 -40.71875 C 8.390625 -40.71875 9.203125 -40.398438 9.859375 -39.765625 C 10.515625 -39.109375 10.84375 -38.304688 10.84375 -37.359375 L 10.84375 -22.5 L 27.0625 -22.5 L 27.0625 -37.359375 C 27.0625 -38.328125 27.410156 -39.128906 28.109375 -39.765625 C 28.765625 -40.398438 29.566406 -40.71875 30.515625 -40.71875 C 31.460938 -40.71875 32.265625 -40.398438 32.921875 -39.765625 C 33.578125 -39.109375 33.90625 -38.304688 33.90625 -37.359375 L 33.90625 -3.078125 C 33.90625 -2.148438 33.566406 -1.359375 32.890625 -0.703125 C 32.234375 -0.046875 31.429688 0.28125 30.484375 0.28125 C 29.535156 0.28125 28.734375 -0.046875 28.078125 -0.703125 C 27.398438 -1.359375 27.0625 -2.148438 27.0625 -3.078125 L 27.0625 -15.625 L 10.84375 -15.625 L 10.84375 -3.078125 C 10.84375 -2.117188 10.515625 -1.328125 9.859375 -0.703125 C 9.203125 -0.046875 8.390625 0.28125 7.421875 0.28125 Z M 7.421875 0.28125 "/></g></g></g><g fill="#001969" fill-opacity="1"><g transform="translate(182.31758, 225.549636)"><g/></g></g><g fill="#001969" fill-opacity="1"><g transform="translate(187.373257, 225.549636)"><g><path d="M 16.390625 0.34375 C 14.359375 0.34375 12.429688 -0.0390625 10.609375 -0.8125 C 8.796875 -1.582031 7.191406 -2.664062 5.796875 -4.0625 C 4.398438 -5.445312 3.3125 -7.050781 2.53125 -8.875 C 1.75 -10.707031 1.359375 -12.640625 1.359375 -14.671875 C 1.359375 -16.703125 1.75 -18.632812 2.53125 -20.46875 C 3.3125 -22.3125 4.398438 -23.9375 5.796875 -25.34375 C 7.191406 -26.738281 8.796875 -27.820312 10.609375 -28.59375 C 12.429688 -29.363281 14.359375 -29.75 16.390625 -29.75 C 18.429688 -29.75 20.367188 -29.359375 22.203125 -28.578125 C 24.046875 -27.796875 25.65625 -26.71875 27.03125 -25.34375 C 28.40625 -23.9375 29.484375 -22.3125 30.265625 -20.46875 C 31.046875 -18.632812 31.4375 -16.703125 31.4375 -14.671875 C 31.4375 -12.640625 31.050781 -10.710938 30.28125 -8.890625 C 29.507812 -7.078125 28.425781 -5.46875 27.03125 -4.0625 C 25.65625 -2.6875 24.046875 -1.609375 22.203125 -0.828125 C 20.367188 -0.046875 18.429688 0.34375 16.390625 0.34375 Z M 16.390625 -6.5 C 17.523438 -6.5 18.585938 -6.707031 19.578125 -7.125 C 20.578125 -7.550781 21.457031 -8.144531 22.21875 -8.90625 C 22.976562 -9.664062 23.5625 -10.535156 23.96875 -11.515625 C 24.382812 -12.503906 24.59375 -13.554688 24.59375 -14.671875 C 24.59375 -15.785156 24.378906 -16.832031 23.953125 -17.8125 C 23.535156 -18.800781 22.945312 -19.675781 22.1875 -20.4375 C 21.445312 -21.175781 20.570312 -21.753906 19.5625 -22.171875 C 18.5625 -22.597656 17.503906 -22.8125 16.390625 -22.8125 C 15.304688 -22.8125 14.257812 -22.597656 13.25 -22.171875 C 12.25 -21.753906 11.378906 -21.175781 10.640625 -20.4375 C 9.878906 -19.675781 9.285156 -18.800781 8.859375 -17.8125 C 8.441406 -16.832031 8.234375 -15.785156 8.234375 -14.671875 C 8.234375 -13.554688 8.441406 -12.503906 8.859375 -11.515625 C 9.285156 -10.535156 9.878906 -9.664062 10.640625 -8.90625 C 11.398438 -8.144531 12.269531 -7.550781 13.25 -7.125 C 14.238281 -6.707031 15.285156 -6.5 16.390625 -6.5 Z M 16.390625 -6.5 "/></g></g></g><g fill="#001969" fill-opacity="1"><g transform="translate(211.014168, 225.549636)"><g/></g></g><g fill="#001969" fill-opacity="1"><g transform="translate(216.069849, 225.549636)"><g><path d="M 17.109375 0 L 4.78125 0 C 3.851562 0 3.097656 -0.316406 2.515625 -0.953125 C 1.929688 -1.585938 1.640625 -2.429688 1.640625 -3.484375 C 1.640625 -4.515625 1.925781 -5.332031 2.5 -5.9375 C 3.070312 -6.539062 3.832031 -6.84375 4.78125 -6.84375 L 16.484375 -6.84375 C 17.160156 -6.84375 17.769531 -7.046875 18.3125 -7.453125 C 18.90625 -7.929688 19.203125 -8.5625 19.203125 -9.34375 C 19.203125 -10.144531 18.90625 -10.75 18.3125 -11.15625 C 17.789062 -11.488281 17.140625 -11.65625 16.359375 -11.65625 L 11.0625 -11.65625 C 9.8125 -11.65625 8.640625 -11.898438 7.546875 -12.390625 C 6.460938 -12.878906 5.519531 -13.566406 4.71875 -14.453125 C 3.914062 -15.335938 3.285156 -16.335938 2.828125 -17.453125 C 2.378906 -18.578125 2.15625 -19.742188 2.15625 -20.953125 C 2.15625 -22.128906 2.382812 -23.253906 2.84375 -24.328125 C 3.3125 -25.410156 3.957031 -26.351562 4.78125 -27.15625 C 5.601562 -27.976562 6.550781 -28.613281 7.625 -29.0625 C 8.707031 -29.519531 9.851562 -29.75 11.0625 -29.75 L 21.171875 -29.75 C 22.140625 -29.75 22.953125 -29.445312 23.609375 -28.84375 C 24.265625 -28.25 24.59375 -27.441406 24.59375 -26.421875 C 24.59375 -25.390625 24.273438 -24.546875 23.640625 -23.890625 C 22.984375 -23.234375 22.210938 -22.90625 21.328125 -22.90625 L 11.15625 -22.90625 C 10.5625 -22.90625 10.050781 -22.6875 9.625 -22.25 C 9.207031 -21.820312 9 -21.3125 9 -20.71875 C 9 -20.0625 9.210938 -19.53125 9.640625 -19.125 C 10.078125 -18.726562 10.582031 -18.53125 11.15625 -18.53125 L 16.984375 -18.53125 C 18.253906 -18.53125 19.445312 -18.28125 20.5625 -17.78125 C 21.6875 -17.289062 22.660156 -16.601562 23.484375 -15.71875 C 24.285156 -14.851562 24.910156 -13.847656 25.359375 -12.703125 C 25.816406 -11.566406 26.046875 -10.394531 26.046875 -9.1875 C 26.046875 -7.96875 25.828125 -6.800781 25.390625 -5.6875 C 24.960938 -4.582031 24.347656 -3.613281 23.546875 -2.78125 C 22.722656 -1.914062 21.753906 -1.238281 20.640625 -0.75 C 19.535156 -0.269531 18.359375 -0.0195312 17.109375 0 Z M 17.109375 0 "/></g></g></g><g fill="#001969" fill-opacity="1"><g transform="translate(234.196796, 225.549636)"><g/></g></g></svg>