<svg xmlns="http://www.w3.org/2000/svg" xmlns:xlink="http://www.w3.org/1999/xlink" width="500" zoomAndPan="magnify" viewBox="0 0 375 374.999991" height="500" preserveAspectRatio="xMidYMid meet" version="1.0"><defs><clipPath id="49db7cfe47"><path d="M 114.316406 84.449219 L 158.972656 84.449219 L 158.972656 294.136719 L 114.316406 294.136719 Z M 114.316406 84.449219 " clip-rule="nonzero"/></clipPath><clipPath id="cfe12131f6"><path d="M 131.566406 84.449219 L 141.726562 84.449219 C 146.300781 84.449219 150.6875 86.265625 153.921875 89.5 C 157.15625 92.734375 158.972656 97.125 158.972656 101.699219 L 158.972656 276.820312 C 158.972656 281.394531 157.15625 285.78125 153.921875 289.015625 C 150.6875 292.253906 146.300781 294.070312 141.726562 294.070312 L 131.566406 294.070312 C 126.988281 294.070312 122.601562 292.253906 119.367188 289.015625 C 116.132812 285.78125 114.316406 281.394531 114.316406 276.820312 L 114.316406 101.699219 C 114.316406 97.125 116.132812 92.734375 119.367188 89.5 C 122.601562 86.265625 126.988281 84.449219 131.566406 84.449219 Z M 131.566406 84.449219 " clip-rule="nonzero"/></clipPath><clipPath id="3bd3c0555e"><path d="M 126.203125 254.328125 L 192.722656 254.328125 L 192.722656 294.023438 L 126.203125 294.023438 Z M 126.203125 254.328125 " clip-rule="nonzero"/></clipPath><clipPath id="dcc2ce2387"><path d="M 126.203125 276.773438 L 126.203125 271.578125 C 126.203125 267.003906 128.019531 262.617188 131.253906 259.382812 C 134.488281 256.148438 138.875 254.328125 143.453125 254.328125 L 175.382812 254.328125 C 179.957031 254.328125 184.34375 256.148438 187.578125 259.382812 C 190.816406 262.617188 192.632812 267.003906 192.632812 271.578125 L 192.632812 276.773438 C 192.632812 281.351562 190.816406 285.738281 187.578125 288.972656 C 184.34375 292.207031 179.957031 294.023438 175.382812 294.023438 L 143.453125 294.023438 C 138.875 294.023438 134.488281 292.207031 131.253906 288.972656 C 128.019531 285.738281 126.203125 281.351562 126.203125 276.773438 Z M 126.203125 276.773438 " clip-rule="nonzero"/></clipPath><clipPath id="8b9d9b4aee"><path d="M 140.25 199.175781 L 257.441406 199.175781 L 257.441406 222.488281 L 140.25 222.488281 Z M 140.25 199.175781 " clip-rule="nonzero"/></clipPath><clipPath id="c91f2620d1"><path d="M 140.25 210.832031 C 140.25 204.394531 145.46875 199.175781 151.90625 199.175781 L 245.71875 199.175781 C 252.15625 199.175781 257.375 204.394531 257.375 210.832031 C 257.375 217.269531 252.15625 222.488281 245.71875 222.488281 L 151.90625 222.488281 C 145.46875 222.488281 140.25 217.269531 140.25 210.832031 Z M 140.25 210.832031 " clip-rule="nonzero"/></clipPath><clipPath id="978f7ee4a4"><path d="M 149 156 L 258 156 L 258 219 L 149 219 Z M 149 156 " clip-rule="nonzero"/></clipPath><clipPath id="d2b41ed279"><path d="M 145.585938 172.359375 L 154.839844 152.828125 L 260.742188 202.984375 L 251.488281 222.519531 Z M 145.585938 172.359375 " clip-rule="nonzero"/></clipPath><clipPath id="5b1b23aa0d"><path d="M 150.214844 162.59375 C 151.441406 160.003906 153.644531 158.007812 156.34375 157.042969 C 159.042969 156.078125 162.015625 156.226562 164.605469 157.453125 L 250.921875 198.335938 C 253.511719 199.5625 255.511719 201.769531 256.472656 204.46875 C 257.4375 207.167969 257.289062 210.136719 256.0625 212.726562 C 254.835938 215.316406 252.632812 217.316406 249.933594 218.277344 C 247.234375 219.242188 244.261719 219.09375 241.671875 217.867188 L 155.355469 176.984375 C 152.765625 175.757812 150.765625 173.550781 149.804688 170.855469 C 148.839844 168.15625 148.988281 165.183594 150.214844 162.59375 Z M 150.214844 162.59375 " clip-rule="nonzero"/></clipPath><clipPath id="d0345f5ae7"><path d="M 151 167 L 207 167 L 207 214 L 151 214 Z M 151 167 " clip-rule="nonzero"/></clipPath><clipPath id="f93158edb2"><path d="M 145.578125 193.46875 L 161.664062 161.667969 L 212.960938 187.617188 L 196.878906 219.417969 Z M 145.578125 193.46875 " clip-rule="nonzero"/></clipPath><clipPath id="dea00cb5f9"><path d="M 153.363281 178.074219 L 153.875 177.0625 C 155.941406 172.980469 159.542969 169.886719 163.890625 168.457031 C 168.238281 167.03125 172.972656 167.390625 177.054688 169.457031 L 197.511719 179.804688 C 201.59375 181.867188 204.6875 185.46875 206.113281 189.816406 C 207.542969 194.164062 207.183594 198.898438 205.117188 202.980469 L 204.605469 203.992188 C 202.539062 208.078125 198.9375 211.171875 194.589844 212.597656 C 190.246094 214.023438 185.507812 213.664062 181.425781 211.601562 L 160.972656 201.253906 C 156.890625 199.1875 153.792969 195.585938 152.367188 191.238281 C 150.941406 186.890625 151.300781 182.15625 153.363281 178.074219 Z M 153.363281 178.074219 " clip-rule="nonzero"/></clipPath></defs><rect x="-37.5" width="450" fill="#ffffff" y="-37.499999" height="449.999989" fill-opacity="1"/><rect x="-37.5" width="450" fill="#001969" y="-37.499999" height="449.999989" fill-opacity="1"/><g clip-path="url(#49db7cfe47)"><g clip-path="url(#cfe12131f6)"><path fill="#ff6f31" d="M 114.316406 84.449219 L 158.976562 84.449219 L 158.976562 294.136719 L 114.316406 294.136719 Z M 114.316406 84.449219 " fill-opacity="1" fill-rule="nonzero"/></g></g><g clip-path="url(#3bd3c0555e)"><g clip-path="url(#dcc2ce2387)"><path fill="#ff6f31" d="M 126.203125 294.023438 L 126.203125 254.328125 L 192.566406 254.328125 L 192.566406 294.023438 Z M 126.203125 294.023438 " fill-opacity="1" fill-rule="nonzero"/></g></g><g clip-path="url(#8b9d9b4aee)"><g clip-path="url(#c91f2620d1)"><path fill="#ff6f31" d="M 140.25 222.488281 L 140.25 199.175781 L 257.351562 199.175781 L 257.351562 222.488281 Z M 140.25 222.488281 " fill-opacity="1" fill-rule="nonzero"/></g></g><g clip-path="url(#978f7ee4a4)"><g clip-path="url(#d2b41ed279)"><g clip-path="url(#5b1b23aa0d)"><path fill="#ff6f31" d="M 145.585938 172.359375 L 154.839844 152.828125 L 260.664062 202.949219 L 251.414062 222.484375 Z M 145.585938 172.359375 " fill-opacity="1" fill-rule="nonzero"/></g></g></g><g clip-path="url(#d0345f5ae7)"><g clip-path="url(#f93158edb2)"><g clip-path="url(#dea00cb5f9)"><path fill="#ff6f31" d="M 145.578125 193.46875 L 161.664062 161.667969 L 212.960938 187.617188 L 196.875 219.417969 Z M 145.578125 193.46875 " fill-opacity="1" fill-rule="nonzero"/></g></g></g></svg>