<svg xmlns="http://www.w3.org/2000/svg" xmlns:xlink="http://www.w3.org/1999/xlink" width="500" zoomAndPan="magnify" viewBox="0 0 375 374.999991" height="500" preserveAspectRatio="xMidYMid meet" version="1.0"><defs><clipPath id="69a5c5a0d0"><path d="M 115.371094 90.792969 L 159.453125 90.792969 L 159.453125 297.136719 L 115.371094 297.136719 Z M 115.371094 90.792969 " clip-rule="nonzero"/></clipPath><clipPath id="02792db73f"><path d="M 132.792969 90.964844 L 142.203125 90.964844 C 146.777344 90.964844 151.164062 92.78125 154.402344 96.015625 C 157.636719 99.25 159.453125 103.640625 159.453125 108.214844 L 159.453125 279.820312 C 159.453125 284.394531 157.636719 288.785156 154.402344 292.019531 C 151.164062 295.253906 146.777344 297.070312 142.203125 297.070312 L 132.792969 297.070312 C 128.21875 297.070312 123.828125 295.253906 120.59375 292.019531 C 117.359375 288.785156 115.542969 284.394531 115.542969 279.820312 L 115.542969 108.214844 C 115.542969 103.640625 117.359375 99.25 120.59375 96.015625 C 123.828125 92.78125 128.21875 90.964844 132.792969 90.964844 Z M 132.792969 90.964844 " clip-rule="nonzero"/></clipPath><clipPath id="04efc49efc"><path d="M 127.078125 257.996094 L 192.632812 257.996094 L 192.632812 297.179688 L 127.078125 297.179688 Z M 127.078125 257.996094 " clip-rule="nonzero"/></clipPath><clipPath id="e6780cc2f9"><path d="M 127.230469 279.777344 L 127.230469 275.246094 C 127.230469 270.671875 129.046875 266.285156 132.28125 263.050781 C 135.515625 259.816406 139.902344 257.996094 144.480469 257.996094 L 175.296875 257.996094 C 179.871094 257.996094 184.257812 259.816406 187.492188 263.050781 C 190.730469 266.285156 192.546875 270.671875 192.546875 275.246094 L 192.546875 279.777344 C 192.546875 284.351562 190.730469 288.738281 187.492188 291.972656 C 184.257812 295.210938 179.871094 297.027344 175.296875 297.027344 L 144.480469 297.027344 C 139.902344 297.027344 135.515625 295.210938 132.28125 291.972656 C 129.046875 288.738281 127.230469 284.351562 127.230469 279.777344 Z M 127.230469 279.777344 " clip-rule="nonzero"/></clipPath><clipPath id="8324ce5b28"><path d="M 141.042969 203.769531 L 256.269531 203.769531 L 256.269531 226.6875 L 141.042969 226.6875 Z M 141.042969 203.769531 " clip-rule="nonzero"/></clipPath><clipPath id="d30d86ca13"><path d="M 141.042969 215.226562 C 141.042969 208.898438 146.171875 203.769531 152.503906 203.769531 L 244.742188 203.769531 C 251.070312 203.769531 256.203125 208.898438 256.203125 215.226562 C 256.203125 221.558594 251.070312 226.6875 244.742188 226.6875 L 152.503906 226.6875 C 146.171875 226.6875 141.042969 221.558594 141.042969 215.226562 Z M 141.042969 215.226562 " clip-rule="nonzero"/></clipPath><clipPath id="2984fcef91"><path d="M 149 161 L 256 161 L 256 224 L 149 224 Z M 149 161 " clip-rule="nonzero"/></clipPath><clipPath id="c026d21ae3"><path d="M 146.289062 177.402344 L 155.386719 158.195312 L 259.511719 207.515625 L 250.417969 226.71875 Z M 146.289062 177.402344 " clip-rule="nonzero"/></clipPath><clipPath id="634dd57673"><path d="M 150.839844 167.796875 C 152.042969 165.25 154.214844 163.289062 156.867188 162.339844 C 159.519531 161.394531 162.441406 161.539062 164.988281 162.742188 L 249.859375 202.941406 C 252.40625 204.148438 254.371094 206.316406 255.316406 208.96875 C 256.265625 211.625 256.121094 214.546875 254.914062 217.09375 C 253.707031 219.640625 251.539062 221.601562 248.886719 222.550781 C 246.230469 223.5 243.308594 223.351562 240.761719 222.148438 L 155.894531 181.949219 C 153.347656 180.742188 151.382812 178.574219 150.433594 175.921875 C 149.488281 173.265625 149.632812 170.34375 150.839844 167.796875 Z M 150.839844 167.796875 " clip-rule="nonzero"/></clipPath><clipPath id="5b0dd339a4"><path d="M 152 172 L 207 172 L 207 218 L 152 218 Z M 152 172 " clip-rule="nonzero"/></clipPath><clipPath id="229a028664"><path d="M 146.28125 198.15625 L 162.097656 166.890625 L 212.535156 192.40625 L 196.71875 223.667969 Z M 146.28125 198.15625 " clip-rule="nonzero"/></clipPath><clipPath id="970d912de7"><path d="M 154.066406 182.761719 L 154.308594 182.285156 C 156.375 178.199219 159.976562 175.105469 164.324219 173.679688 C 168.671875 172.253906 173.40625 172.613281 177.488281 174.675781 L 197.085938 184.589844 C 201.167969 186.65625 204.261719 190.257812 205.6875 194.605469 C 207.117188 198.949219 206.757812 203.6875 204.691406 207.769531 L 204.449219 208.246094 C 202.382812 212.328125 198.78125 215.425781 194.433594 216.851562 C 190.089844 218.277344 185.351562 217.917969 181.269531 215.855469 L 161.675781 205.941406 C 157.59375 203.875 154.496094 200.273438 153.070312 195.925781 C 151.644531 191.582031 152.003906 186.84375 154.066406 182.761719 Z M 154.066406 182.761719 " clip-rule="nonzero"/></clipPath></defs><rect x="-37.5" width="450" fill="#ffffff" y="-37.499999" height="449.999989" fill-opacity="1"/><rect x="-37.5" width="450" fill="#ff6f31" y="-37.499999" height="449.999989" fill-opacity="1"/><g clip-path="url(#69a5c5a0d0)"><g clip-path="url(#02792db73f)"><path fill="#f2f2f2" d="M 115.542969 90.964844 L 159.453125 90.964844 L 159.453125 297.136719 L 115.542969 297.136719 Z M 115.542969 90.964844 " fill-opacity="1" fill-rule="nonzero"/></g></g><g clip-path="url(#04efc49efc)"><g clip-path="url(#e6780cc2f9)"><path fill="#f2f2f2" d="M 127.230469 297.027344 L 127.230469 257.996094 L 192.480469 257.996094 L 192.480469 297.027344 Z M 127.230469 297.027344 " fill-opacity="1" fill-rule="nonzero"/></g></g><g clip-path="url(#8324ce5b28)"><g clip-path="url(#d30d86ca13)"><path fill="#f2f2f2" d="M 141.042969 226.6875 L 141.042969 203.769531 L 256.179688 203.769531 L 256.179688 226.6875 Z M 141.042969 226.6875 " fill-opacity="1" fill-rule="nonzero"/></g></g><g clip-path="url(#2984fcef91)"><g clip-path="url(#c026d21ae3)"><g clip-path="url(#634dd57673)"><path fill="#f2f2f2" d="M 146.289062 177.402344 L 155.386719 158.195312 L 259.4375 207.480469 L 250.34375 226.683594 Z M 146.289062 177.402344 " fill-opacity="1" fill-rule="nonzero"/></g></g></g><g clip-path="url(#5b0dd339a4)"><g clip-path="url(#229a028664)"><g clip-path="url(#970d912de7)"><path fill="#f2f2f2" d="M 146.28125 198.15625 L 162.097656 166.890625 L 212.535156 192.40625 L 196.71875 223.667969 Z M 146.28125 198.15625 " fill-opacity="1" fill-rule="nonzero"/></g></g></g></svg>